<svg xmlns="http://www.w3.org/2000/svg" width="170" height="52" fill="none" viewBox="0 0 170 52">
    <path fill="#3B7632" d="M46.097 30.263H6.405c.36 4.742 2.255 8.588 5.683 11.537 3.428 2.892 7.758 4.337 12.99 4.337 2.947 0 5.653-.491 8.119-1.474a18.198 18.198 0 0 0 6.405-4.511l3.608 3.99c-2.105 2.429-4.75 4.28-7.938 5.552-3.127 1.272-6.585 1.908-10.374 1.908-4.872 0-9.202-.983-12.99-2.95-3.729-2.023-6.646-4.799-8.75-8.327C1.051 36.798 0 32.808 0 28.355s.992-8.443 2.977-11.97c2.045-3.528 4.811-6.275 8.3-8.24 3.547-1.967 7.517-2.95 11.907-2.95s8.33.983 11.817 2.95c3.488 1.965 6.225 4.712 8.21 8.24 1.984 3.47 2.976 7.46 2.976 11.97l-.09 1.908zM23.184 10.486c-4.57 0-8.42 1.417-11.547 4.25-3.067 2.776-4.811 6.42-5.232 10.93h33.648c-.421-4.51-2.195-8.154-5.322-10.93-3.068-2.833-6.917-4.25-11.547-4.25zM78.89 51.602c-4.692 0-8.901-.983-12.63-2.95-3.668-1.965-6.555-4.712-8.66-8.24-2.105-3.585-3.157-7.604-3.157-12.057s1.052-8.443 3.157-11.97c2.105-3.528 4.992-6.275 8.66-8.24 3.729-1.967 7.938-2.95 12.63-2.95 4.089 0 7.727.78 10.915 2.342 3.247 1.503 5.803 3.73 7.667 6.68l-4.78 3.122c-1.564-2.255-3.549-3.932-5.954-5.031-2.406-1.157-5.022-1.735-7.849-1.735-3.428 0-6.525.752-9.291 2.255-2.706 1.446-4.841 3.528-6.405 6.246-1.503 2.718-2.255 5.811-2.255 9.281 0 3.528.752 6.65 2.255 9.368a16.714 16.714 0 0 0 6.405 6.246c2.766 1.445 5.863 2.168 9.291 2.168 2.827 0 5.443-.55 7.849-1.648 2.405-1.099 4.39-2.776 5.953-5.03l4.781 3.122c-1.864 2.949-4.42 5.204-7.667 6.766-3.248 1.503-6.886 2.255-10.916 2.255zM165.129 51.602c-1.323 0-2.466-.463-3.428-1.388-.902-.925-1.353-2.053-1.353-3.383s.451-2.429 1.353-3.296c.962-.925 2.105-1.388 3.428-1.388s2.465.463 3.428 1.388c.962.867 1.443 1.966 1.443 3.296 0 1.33-.481 2.458-1.443 3.383-.963.925-2.105 1.388-3.428 1.388z"/>
    <path fill="#3B7632" fill-rule="evenodd" d="M116.298 48.653c3.669 1.966 7.788 2.949 12.359 2.949 4.57 0 8.69-.983 12.358-2.95 3.669-2.023 6.525-4.799 8.57-8.327 2.105-3.527 3.158-7.517 3.158-11.97s-1.053-8.443-3.158-11.97c-2.045-3.528-4.901-6.275-8.57-8.24l-3.337 4.683c2.706 1.446 4.811 3.528 6.314 6.246 1.504 2.718 2.255 5.811 2.255 9.281 0 3.47-.751 6.564-2.255 9.281-1.503 2.718-3.608 4.83-6.314 6.333-2.647 1.445-5.653 2.168-9.021 2.168-3.368 0-6.405-.723-9.111-2.168-2.647-1.504-4.751-3.615-6.315-6.333-1.504-2.717-2.255-5.811-2.255-9.28 0-3.47.751-6.564 2.255-9.282 1.564-2.718 3.668-4.8 6.315-6.246 2.706-1.503 5.743-2.255 9.111-2.255V5.195c-4.571 0-8.69.983-12.359 2.95-3.668 1.965-6.555 4.712-8.66 8.24-2.105 3.527-3.157 7.517-3.157 11.97s1.052 8.443 3.157 11.97c2.105 3.528 4.992 6.304 8.66 8.328z" clip-rule="evenodd"/>
    <path stroke="#3B7632" stroke-linecap="square" stroke-width="3" d="M123 2.099l7.821 5.825-6.906 6.683"/>
</svg>
