<svg width="60" height="60" viewBox="0 0 60 60" fill="none" xmlns="http://www.w3.org/2000/svg">
<g clip-path="url(#clip0)">
<path d="M56.6885 60.0002C58.5171 60.0002 60 58.5176 60 56.6887V3.31148C60 1.48242 58.5171 0 56.6885 0H3.31148C1.48219 0 0 1.48242 0 3.31148V56.6887C0 58.5176 1.48219 60.0002 3.31148 60.0002H56.6885Z" fill="#3B7632"/>
<path d="M41.3986 60.0001V36.7649H49.1979L50.3656 27.7098H41.3986V21.9283C41.3986 19.3065 42.1268 17.5199 45.8864 17.5199L50.6815 17.5178V9.41896C49.8518 9.30857 47.0056 9.06201 43.6943 9.06201C36.7807 9.06201 32.0477 13.2819 32.0477 21.0318V27.7098H24.2285V36.7649H32.0477V60.0001H41.3986Z" fill="white"/>
</g>
<defs>
<clipPath id="clip0">
<rect width="60" height="60" fill="white"/>
</clipPath>
</defs>
</svg>
