<svg width="60" height="60" viewBox="0 0 60 60" fill="none" xmlns="http://www.w3.org/2000/svg">
<path d="M30 0C13.4313 0 0 13.4313 0 30C0 46.5687 13.4313 60 30 60C46.5687 60 60 46.5687 60 30C60 13.4313 46.5687 0 30 0Z" fill="#3B7632"/>
<path d="M44.5974 17.2573L39.2391 44.273C39.2391 44.273 38.4898 46.1466 36.4289 45.2473L24.0638 35.7673L19.5675 33.5942L11.9986 31.046C11.9986 31.046 10.8371 30.634 10.7246 29.7347C10.6123 28.8354 12.0361 28.3484 12.0361 28.3484L42.1243 16.5453C42.1243 16.5453 44.5974 15.4587 44.5974 17.2573Z" fill="white"/>
<path d="M23.1132 43.9698C23.1132 43.9698 22.7523 43.9361 22.3025 42.512C21.853 41.0882 19.5674 33.5943 19.5674 33.5943L37.7401 22.0536C37.7401 22.0536 38.7894 21.4166 38.7519 22.0536C38.7519 22.0536 38.9392 22.1659 38.3771 22.6904C37.8151 23.2152 24.1011 35.5426 24.1011 35.5426" fill="#3B7632"/>
<path d="M28.8048 39.4021L23.9139 43.8613C23.9139 43.8613 23.5316 44.1514 23.1133 43.9696L24.0498 35.6865" fill="#3B7632"/>
</svg>
