<svg width="60" height="60" viewBox="0 0 60 60" fill="none" xmlns="http://www.w3.org/2000/svg">
<path fill-rule="evenodd" clip-rule="evenodd" d="M39.2096 0H20.7904C3.98024 0 0 3.98024 0 20.7904V39.2096C0 56.0198 3.98024 60 20.7904 60H39.2096C56.0198 60 60 56.0198 60 39.2096V20.7904C60 3.98024 55.9774 0 39.2096 0ZM48.4404 42.8087H44.079C42.4277 42.8087 41.9195 41.4961 38.9555 38.4898C36.3726 35.9915 35.2294 35.6528 34.5942 35.6528C33.705 35.6528 33.4509 35.9068 33.4509 37.1348V41.0727C33.4509 42.1313 33.1122 42.7664 30.3176 42.7664C25.7022 42.7664 20.5787 39.9718 16.9795 34.7636C11.5596 27.1418 10.0776 21.4255 10.0776 20.2399C10.0776 19.6048 10.3317 19.012 11.5596 19.012H15.921C17.0219 19.012 17.4453 19.5201 17.8687 20.7057C20.0282 26.9301 23.6274 32.3924 25.1094 32.3924C25.6598 32.3924 25.9139 32.1383 25.9139 30.741V24.3049C25.7445 21.3409 24.1778 21.0868 24.1778 20.0282C24.1778 19.5201 24.6013 19.012 25.2788 19.012H32.1383C33.0699 19.012 33.4086 19.5201 33.4086 20.621V29.3013C33.4086 30.2329 33.832 30.5716 34.0861 30.5716C34.6366 30.5716 35.1023 30.2329 36.1186 29.2167C39.2519 25.7022 41.4961 20.2823 41.4961 20.2823C41.7925 19.6471 42.3006 19.0543 43.4015 19.0543H47.7629C49.0755 19.0543 49.3719 19.7318 49.0755 20.6634C48.5251 23.2039 43.1898 30.741 43.1898 30.741C42.7241 31.5032 42.5547 31.8419 43.1898 32.6888C43.6556 33.3239 45.18 34.6366 46.1962 35.8222C48.0593 37.9393 49.4989 39.7177 49.88 40.9457C50.3035 42.1736 49.6683 42.8087 48.4404 42.8087Z" fill="#3B7632"/>
</svg>
